<svg xmlns="http://www.w3.org/2000/svg" viewBox="1068.73193359375 1098.882568359375 50.239990234375 31.052001953125" height="100%" width="100%" id="svg2" version="1.1" xmlns:xlink="http://www.w3.org/1999/xlink" preserveAspectRatio="none"><path xmlns="http://www.w3.org/2000/svg" id="2elvect-1" style="fill:#100f0d;fill-opacity:1;fill-rule:nonzero;stroke:none" d="M1109.25862,1108.1986 C1105.97195,1105.5906 1102.00528,1107.0546 1102.00528,1107.0546 1102.00528,1107.0546 1099.73595,1101.29326 1091.96262,1101.2786 1084.18928,1101.26393 1080.64929,1109.5826 1080.64929,1109.5826 1080.64929,1109.5826 1071.00929,1109.97593 1070.99062,1119.94526 1070.97195,1129.04259 1077.91462,1129.92926 1080.40262,1129.93459 1085.26973,1129.93459 1090.13684,1129.93459 1095.00395,1129.93459 1101.13728,1129.93459 1107.27062,1129.93459 1113.40395,1129.93459 1114.64928,1129.68793 1118.96128,1128.43193 1118.97195,1122.71059 1118.98528,1116.02926 1112.66528,1114.8866 1112.66528,1114.8866 1112.66528,1114.8866 1113.56662,1111.6186 1109.25862,1108.1986 z" class=" " data-selected=""></path><path xmlns="http://www.w3.org/2000/svg" id="2elvect-2" style="fill:#e5eff4;fill-opacity:1;fill-rule:nonzero;stroke:none" d="M1078.39062,1107.1866 C1078.39062,1107.1866 1081.93195,1098.86793 1089.70528,1098.8826 1097.47862,1098.8986 1099.74795,1104.6586 1099.74795,1104.6586 1099.74795,1104.6586 1103.71462,1103.1946 1106.99995,1105.8026 1111.30928,1109.22393 1110.40795,1112.4906 1110.40795,1112.4906 1110.40795,1112.4906 1116.72795,1113.63326 1116.71462,1120.31459 1116.70395,1126.03593 1112.39195,1127.29326 1111.14662,1127.53859 1100.14617,1127.53859 1089.14573,1127.53859 1078.14529,1127.53859 1075.65729,1127.53326 1068.71462,1126.64659 1068.73195,1117.54926 1068.75195,1107.57993 1078.39062,1107.1866 1078.39062,1107.1866 z" class="  " data-selected=""></path><path xmlns="http://www.w3.org/2000/svg" id="2elvect-3" style="fill:#ffffff;fill-opacity:1;fill-rule:nonzero;stroke:none" d="M1078.39062,1107.1866 C1078.39062,1107.1866 1081.93195,1098.86793 1089.70528,1098.8826 1090.84395,1098.88526 1091.83328,1099.03593 1092.74662,1099.24926 1092.74662,1108.67904 1092.74662,1118.10882 1092.74662,1127.53859 1087.87951,1127.53859 1083.0124,1127.53859 1078.14529,1127.53859 1075.65729,1127.53326 1068.71462,1126.64659 1068.73195,1117.54926 1068.75195,1107.57993 1078.39062,1107.1866 1078.39062,1107.1866 z"></path></svg>